<svg width="16" height="18" viewBox="0 0 16 18" fill="none" xmlns="http://www.w3.org/2000/svg">
<path fill-rule="evenodd" clip-rule="evenodd" d="M9.66667 3.58329C9.66667 1.97246 10.9725 0.666626 12.5833 0.666626C14.1942 0.666626 15.5 1.97246 15.5 3.58329C15.5 5.19411 14.1942 6.49996 12.5833 6.49996C11.769 6.49996 11.0327 6.16626 10.5036 5.62816L6.22756 8.21884C6.29649 8.46745 6.33333 8.7294 6.33333 8.99996C6.33333 9.24301 6.3036 9.47912 6.24758 9.70485L10.6009 12.2773C11.1212 11.7949 11.8178 11.5 12.5833 11.5C14.1942 11.5 15.5 12.8058 15.5 14.4166C15.5 16.0274 14.1942 17.3333 12.5833 17.3333C10.9725 17.3333 9.66667 16.0274 9.66667 14.4166C9.66667 14.1736 9.69639 13.9375 9.75241 13.7118L5.39908 11.1394C4.87875 11.6217 4.18214 11.9166 3.41667 11.9166C1.80585 11.9166 0.5 10.6108 0.5 8.99996C0.5 7.38914 1.80585 6.08329 3.41667 6.08329C4.15373 6.08329 4.82695 6.3567 5.34042 6.80763L9.72225 4.15284C9.68578 3.96864 9.66667 3.7782 9.66667 3.58329ZM12.5833 2.33329C11.893 2.33329 11.3333 2.89294 11.3333 3.58329C11.3333 4.27364 11.893 4.83329 12.5833 4.83329C13.2737 4.83329 13.8333 4.27364 13.8333 3.58329C13.8333 2.89294 13.2737 2.33329 12.5833 2.33329ZM3.41667 7.74996C2.72632 7.74996 2.16667 8.30961 2.16667 8.99996C2.16667 9.69031 2.72632 10.25 3.41667 10.25C4.10701 10.25 4.66667 9.69031 4.66667 8.99996C4.66667 8.30961 4.10701 7.74996 3.41667 7.74996ZM12.5833 13.1666C11.893 13.1666 11.3333 13.7263 11.3333 14.4166C11.3333 15.107 11.893 15.6666 12.5833 15.6666C13.2737 15.6666 13.8333 15.107 13.8333 14.4166C13.8333 13.7263 13.2737 13.1666 12.5833 13.1666Z" fill="#C9C9C9"/>
</svg>
